<?xml version="1.0" encoding="UTF-8"?>
<!DOCTYPE svg PUBLIC "-//W3C//DTD SVG 1.1//EN" "http://www.w3.org/Graphics/SVG/1.1/DTD/svg11.dtd">
<svg xmlns="http://www.w3.org/2000/svg" version="1.1" width="619px" height="619px" style="shape-rendering:geometricPrecision; text-rendering:geometricPrecision; image-rendering:optimizeQuality; fill-rule:evenodd; clip-rule:evenodd" xmlns:xlink="http://www.w3.org/1999/xlink">
<g><path style="opacity:1" fill="#a7471e" d="M 334.5,14.5 C 334.833,15.1667 335.167,15.8333 335.5,16.5C 313.831,16.3334 292.164,16.5 270.5,17C 261.343,19.4638 252.01,20.9638 242.5,21.5C 255.124,17.8794 268.124,15.7127 281.5,15C 299.164,14.5001 316.83,14.3334 334.5,14.5 Z"/></g>
<g><path style="opacity:1" fill="#c35522" d="M 335.5,16.5 C 336.167,16.5 336.5,16.8333 336.5,17.5C 314.476,17.1486 292.476,17.6486 270.5,19C 263.409,20.9835 256.409,22.8168 249.5,24.5C 219.347,28.6078 191.347,38.7745 165.5,55C 160.529,56.1589 155.862,57.9922 151.5,60.5C 151.833,59.8333 152.167,59.1667 152.5,58.5C 164.082,52.7088 175.749,46.8754 187.5,41C 199.814,35.8451 212.148,31.0118 224.5,26.5C 230.181,24.0561 236.181,22.3894 242.5,21.5C 252.01,20.9638 261.343,19.4638 270.5,17C 292.164,16.5 313.831,16.3334 335.5,16.5 Z"/></g>
<g><path style="opacity:1" fill="#e66627" d="M 367.5,23.5 C 368.167,24.1667 368.833,24.8333 369.5,25.5C 329.571,19.1683 289.571,18.8349 249.5,24.5C 256.409,22.8168 263.409,20.9835 270.5,19C 292.476,17.6486 314.476,17.1486 336.5,17.5C 338.199,17.3796 339.865,17.0463 341.5,16.5C 349.991,19.3342 358.658,21.6675 367.5,23.5 Z"/></g>
<g><path style="opacity:1" fill="#f9702a" d="M 369.5,25.5 C 371.199,25.3398 372.866,25.5065 374.5,26C 377.971,28.0719 381.638,29.5719 385.5,30.5C 394.221,34.6953 402.887,39.1953 411.5,44C 415.901,47.1879 420.234,50.3546 424.5,53.5C 405.338,45.7799 385.671,39.4466 365.5,34.5C 365.389,33.8826 365.056,33.3826 364.5,33C 280.338,17.2199 204.004,33.8866 135.5,83C 130.728,89.3979 124.728,94.3979 117.5,98C 105.602,109.229 94.4349,121.063 84,133.5C 81.0757,139.021 77.909,144.355 74.5,149.5C 69.6767,159.658 64.01,169.324 57.5,178.5C 53.656,186.683 49.8227,194.683 46,202.5C 40.6591,220.212 35.4924,237.879 30.5,255.5C 30.5,253.833 30.5,252.167 30.5,250.5C 31.3305,241.653 32.1638,232.653 33,223.5C 34.6425,218.598 35.8091,213.598 36.5,208.5C 38.2508,201.402 40.2508,194.402 42.5,187.5C 47.1844,180.126 52.351,173.126 58,166.5C 62.5906,157.651 66.9239,148.651 71,139.5C 90.1667,113.667 112.667,91.1667 138.5,72C 156.186,62.1564 174.186,52.823 192.5,44C 211.644,37.7176 230.644,31.2176 249.5,24.5C 289.571,18.8349 329.571,19.1683 369.5,25.5 Z"/></g>
<g><path style="opacity:1" fill="#763c10" d="M 334.5,14.5 C 347.831,15.6648 360.831,17.9982 373.5,21.5C 379.148,23.1379 384.814,25.1379 390.5,27.5C 382.918,25.688 375.252,24.3547 367.5,23.5C 358.658,21.6675 349.991,19.3342 341.5,16.5C 339.865,17.0463 338.199,17.3796 336.5,17.5C 336.5,16.8333 336.167,16.5 335.5,16.5C 335.167,15.8333 334.833,15.1667 334.5,14.5 Z"/></g>
<g><path style="opacity:1" fill="#994e14" d="M 367.5,23.5 C 375.252,24.3547 382.918,25.688 390.5,27.5C 394.888,27.3643 398.555,28.8643 401.5,32C 413.382,34.6743 424.382,39.1743 434.5,45.5C 435.425,46.3569 436.092,47.3569 436.5,48.5C 425.95,44.8926 415.617,40.7259 405.5,36C 398.814,34.1624 392.148,32.329 385.5,30.5C 381.638,29.5719 377.971,28.0719 374.5,26C 372.866,25.5065 371.199,25.3398 369.5,25.5C 368.833,24.8333 368.167,24.1667 367.5,23.5 Z"/></g>
<g><path style="opacity:1" fill="#000000" d="M 307.5,32.5 C 370.747,33.9127 427.413,53.5793 477.5,91.5C 482.179,96.1777 487.179,100.511 492.5,104.5C 524.277,134.725 548.61,170.058 565.5,210.5C 565.32,214.286 566.32,217.619 568.5,220.5C 591.877,297.392 584.877,371.392 547.5,442.5C 492.31,532.96 411.31,579.96 304.5,583.5C 297.181,582.812 289.848,582.479 282.5,582.5C 256.243,579.521 230.576,573.521 205.5,564.5C 114.262,525.124 57.5953,456.79 35.5,359.5C 35.3541,355.613 34.6874,351.946 33.5,348.5C 22.2362,251.113 52.2362,168.946 123.5,102C 176.255,56.8152 237.589,33.6485 307.5,32.5 Z"/></g>
<g><path style="opacity:1" fill="#a2441e" d="M 224.5,26.5 C 212.148,31.0118 199.814,35.8451 187.5,41C 175.749,46.8754 164.082,52.7088 152.5,58.5C 169.875,46.98 188.542,37.8133 208.5,31C 213.713,28.9835 219.046,27.4835 224.5,26.5 Z"/></g>
<g><path style="opacity:1" fill="#d86125" d="M 357.5,35.5 C 359.948,34.5269 362.615,34.1936 365.5,34.5C 385.671,39.4466 405.338,45.7799 424.5,53.5C 428.29,54.8951 431.957,56.5617 435.5,58.5C 445.863,65.0119 455.863,72.0119 465.5,79.5C 441.113,63.3103 414.779,50.8103 386.5,42C 376.996,39.0403 367.329,36.8736 357.5,35.5 Z"/></g>
<g><path style="opacity:1" fill="#ba731f" d="M 308.5,30.5 C 325.052,30.5141 341.386,32.1808 357.5,35.5C 367.329,36.8736 376.996,39.0403 386.5,42C 414.779,50.8103 441.113,63.3103 465.5,79.5C 469.792,82.4566 473.792,85.7899 477.5,89.5C 477.5,90.1667 477.5,90.8333 477.5,91.5C 427.413,53.5793 370.747,33.9127 307.5,32.5C 307.833,31.8333 308.167,31.1667 308.5,30.5 Z"/></g>
<g><path style="opacity:1" fill="#bb5f19" d="M 385.5,30.5 C 392.148,32.329 398.814,34.1624 405.5,36C 415.617,40.7259 425.95,44.8926 436.5,48.5C 437.167,48.5 437.833,48.5 438.5,48.5C 444.042,52.1925 449.876,55.5258 456,58.5C 462.956,65.9067 471.122,71.74 480.5,76C 496.989,91.9882 513.656,107.822 530.5,123.5C 536.042,132.284 542.209,140.617 549,148.5C 552.215,153.596 554.881,158.929 557,164.5C 560.155,168.795 563.321,173.129 566.5,177.5C 571.483,190.128 576.983,202.461 583,214.5C 586.052,229.375 589.719,244.042 594,258.5C 596.079,283.457 596.912,308.457 596.5,333.5C 595.833,332.833 595.167,332.167 594.5,331.5C 593.78,319.478 592.78,307.478 591.5,295.5C 590.194,293.184 588.861,290.85 587.5,288.5C 589.612,284.382 589.612,280.382 587.5,276.5C 581.301,223.335 561.801,176.002 529,134.5C 528.363,131.672 526.696,129.672 524,128.5C 523.206,125.169 521.039,123.336 517.5,123C 512.575,116.071 506.908,109.738 500.5,104C 490.751,95.5715 481.085,87.2382 471.5,79C 463.132,72.9823 454.466,67.3157 445.5,62C 442.469,59.9852 439.136,58.8185 435.5,58.5C 431.957,56.5617 428.29,54.8951 424.5,53.5C 420.234,50.3546 415.901,47.1879 411.5,44C 402.887,39.1953 394.221,34.6953 385.5,30.5 Z"/></g>
<g><path style="opacity:1" fill="#68350e" d="M 373.5,21.5 C 406.757,28.4637 437.757,40.9637 466.5,59C 475.298,64.6443 483.631,70.811 491.5,77.5C 490.127,77.6567 488.793,77.49 487.5,77C 479.431,70.0654 470.764,64.2321 461.5,59.5C 457.301,56.8546 452.967,54.3546 448.5,52C 445.242,50.5335 441.908,49.3668 438.5,48.5C 437.833,48.5 437.167,48.5 436.5,48.5C 436.092,47.3569 435.425,46.3569 434.5,45.5C 424.382,39.1743 413.382,34.6743 401.5,32C 398.555,28.8643 394.888,27.3643 390.5,27.5C 384.814,25.1379 379.148,23.1379 373.5,21.5 Z"/></g>
<g><path style="opacity:1" fill="#bb5121" d="M 151.5,60.5 C 117.583,83.7497 88.5831,112.083 64.5,145.5C 87.2576,110.742 116.258,82.4087 151.5,60.5 Z"/></g>
<g><path style="opacity:1" fill="#955d16" d="M 477.5,91.5 C 482.217,94.0374 486.551,97.204 490.5,101C 491.823,101.816 492.489,102.983 492.5,104.5C 487.179,100.511 482.179,96.1777 477.5,91.5 Z"/></g>
<g><path style="opacity:1" fill="#5c2e0c" d="M 491.5,77.5 C 506.091,88.0896 519.091,100.423 530.5,114.5C 517.776,101.774 504.776,89.4402 491.5,77.5 Z"/></g>
<g><path style="opacity:1" fill="#844311" d="M 461.5,59.5 C 470.764,64.2321 479.431,70.0654 487.5,77C 488.793,77.49 490.127,77.6567 491.5,77.5C 504.776,89.4402 517.776,101.774 530.5,114.5C 530.5,115.833 530.5,117.167 530.5,118.5C 520.261,108.76 510.261,98.9264 500.5,89C 493.502,85.9942 487.835,81.3275 483.5,75C 476.387,72.2132 469.721,68.5465 463.5,64C 461.963,62.8904 461.297,61.3904 461.5,59.5 Z"/></g>
<g><path style="opacity:1" fill="#9c471b" d="M 423.5,109.5 C 423.662,107.473 423.495,105.473 423,103.5C 421.955,104.373 421.122,105.373 420.5,106.5C 420.167,106.5 419.833,106.5 419.5,106.5C 419.5,105.833 419.5,105.167 419.5,104.5C 421.233,103.992 421.566,103.159 420.5,102C 409.45,101.121 398.45,101.454 387.5,103C 386.267,104.667 384.933,106.167 383.5,107.5C 384.009,104.808 385.009,102.308 386.5,100C 399.866,99.2219 413.199,99.3886 426.5,100.5C 426.072,103.785 425.072,106.785 423.5,109.5 Z"/></g>
<g><path style="opacity:1" fill="#ec6829" d="M 365.5,34.5 C 362.615,34.1936 359.948,34.5269 357.5,35.5C 341.386,32.1808 325.052,30.5141 308.5,30.5C 223.247,31.6637 152.247,63.6637 95.5,126.5C 93.5953,126.072 91.762,126.738 90,128.5C 85.9791,133.814 82.3125,139.481 79,145.5C 77.6927,147.192 76.1927,148.525 74.5,149.5C 77.909,144.355 81.0757,139.021 84,133.5C 94.4349,121.063 105.602,109.229 117.5,98C 124.728,94.3979 130.728,89.3979 135.5,83C 204.004,33.8866 280.338,17.2199 364.5,33C 365.056,33.3826 365.389,33.8826 365.5,34.5 Z"/></g>
<g><path style="opacity:1" fill="#fe772b" d="M 415.5,113.5 C 406.303,138.424 397.303,163.424 388.5,188.5C 387.21,189.058 386.377,190.058 386,191.5C 384.046,199.587 380.879,206.92 376.5,213.5C 369.19,217.824 361.856,222.157 354.5,226.5C 353.638,227.766 352.971,229.099 352.5,230.5C 345.49,247.871 338.49,265.204 331.5,282.5C 350.329,225.849 369.495,169.182 389,112.5C 389.833,110.833 390.667,109.167 391.5,107.5C 399.145,106.335 406.812,106.169 414.5,107C 416.558,108.808 416.892,110.975 415.5,113.5 Z"/></g>
<g><path style="opacity:1" fill="#a2441e" d="M 152.5,58.5 C 152.167,59.1667 151.833,59.8333 151.5,60.5C 116.258,82.4087 87.2576,110.742 64.5,145.5C 62.9328,148.967 61.0995,152.3 59,155.5C 55.091,159.024 51.9243,163.024 49.5,167.5C 49.1667,167.5 48.8333,167.5 48.5,167.5C 73.6094,122.057 108.276,85.7238 152.5,58.5 Z"/></g>
<g><path style="opacity:1" fill="#cc7e22" d="M 308.5,30.5 C 308.167,31.1667 307.833,31.8333 307.5,32.5C 237.589,33.6485 176.255,56.8152 123.5,102C 52.2362,168.946 22.2362,251.113 33.5,348.5C 33.6646,351.518 33.498,354.518 33,357.5C 29.3992,335.988 27.8992,314.321 28.5,292.5C 33.1442,229.898 55.4776,174.565 95.5,126.5C 152.247,63.6637 223.247,31.6637 308.5,30.5 Z"/></g>
<g><path style="opacity:1" fill="#b24c20" d="M 245.5,145.5 C 244.527,145.013 243.527,144.513 242.5,144C 230.505,143.5 218.505,143.333 206.5,143.5C 206.5,144.833 206.5,146.167 206.5,147.5C 205.5,146.833 204.5,146.167 203.5,145.5C 203.5,145.167 203.5,144.833 203.5,144.5C 203.5,143.5 203.5,142.5 203.5,141.5C 217.849,141.167 232.182,141.501 246.5,142.5C 245.873,143.417 245.539,144.417 245.5,145.5 Z"/></g>
<g><path style="opacity:1" fill="#fe772b" d="M 267.5,218.5 C 275.706,239.719 281.706,261.052 285.5,282.5C 279.89,286.772 274.557,291.438 269.5,296.5C 268.374,297.808 268.374,299.142 269.5,300.5C 270.074,305.444 271.074,310.444 272.5,315.5C 251.749,260.927 231.749,205.927 212.5,150.5C 212.977,149.522 213.643,148.689 214.5,148C 224.078,147.182 233.578,147.349 243,148.5C 250.902,172.044 259.069,195.378 267.5,218.5 Z"/></g>
<g><path style="opacity:1" fill="#ec6a28" d="M 245.5,145.5 C 245.557,146.609 245.89,147.609 246.5,148.5C 251.387,166.822 257.053,184.822 263.5,202.5C 265.037,207.778 266.37,213.112 267.5,218.5C 259.069,195.378 250.902,172.044 243,148.5C 233.578,147.349 224.078,147.182 214.5,148C 213.643,148.689 212.977,149.522 212.5,150.5C 231.749,205.927 251.749,260.927 272.5,315.5C 272.833,316.167 273.167,316.833 273.5,317.5C 273.5,317.833 273.5,318.167 273.5,318.5C 272.849,319.091 272.182,319.757 271.5,320.5C 270.824,319.398 270.158,318.398 269.5,317.5C 261.069,294.988 252.402,272.655 243.5,250.5C 231.367,216.102 219.034,181.769 206.5,147.5C 206.5,146.167 206.5,144.833 206.5,143.5C 218.505,143.333 230.505,143.5 242.5,144C 243.527,144.513 244.527,145.013 245.5,145.5 Z"/></g>
<g><path style="opacity:1" fill="#67340e" d="M 530.5,114.5 C 544.034,128.567 555.368,144.233 564.5,161.5C 559.751,159.36 556.918,155.693 556,150.5C 555.292,149.619 554.458,148.953 553.5,148.5C 547.503,137.467 539.836,127.467 530.5,118.5C 530.5,117.167 530.5,115.833 530.5,114.5 Z"/></g>
<g><path style="opacity:1" fill="#a85517" d="M 435.5,58.5 C 439.136,58.8185 442.469,59.9852 445.5,62C 454.466,67.3157 463.132,72.9823 471.5,79C 481.085,87.2382 490.751,95.5715 500.5,104C 506.908,109.738 512.575,116.071 517.5,123C 521.039,123.336 523.206,125.169 524,128.5C 526.696,129.672 528.363,131.672 529,134.5C 561.801,176.002 581.301,223.335 587.5,276.5C 585.959,271.465 584.292,266.465 582.5,261.5C 579.678,244.54 574.845,228.207 568,212.5C 567.57,215.192 567.737,217.859 568.5,220.5C 566.32,217.619 565.32,214.286 565.5,210.5C 566.376,210.631 567.043,210.298 567.5,209.5C 548.497,161.176 518.497,121.176 477.5,89.5C 473.792,85.7899 469.792,82.4566 465.5,79.5C 455.863,72.0119 445.863,65.0119 435.5,58.5 Z"/></g>
<g><path style="opacity:1" fill="#ef6a29" d="M 419.5,104.5 C 419.5,105.167 419.5,105.833 419.5,106.5C 418.404,109.032 417.071,111.365 415.5,113.5C 416.892,110.975 416.558,108.808 414.5,107C 406.812,106.169 399.145,106.335 391.5,107.5C 390.667,109.167 389.833,110.833 389,112.5C 369.495,169.182 350.329,225.849 331.5,282.5C 328.163,292.845 324.829,303.178 321.5,313.5C 319.503,318.317 316.836,322.817 313.5,327C 310.109,328.798 308.109,327.631 307.5,323.5C 308.791,323.737 309.791,323.404 310.5,322.5C 315.238,320.048 317.738,316.048 318,310.5C 341.237,242.795 364.237,174.462 387,105.5C 387.5,105 388,104.5 388.5,104C 399.008,103.175 409.342,103.341 419.5,104.5 Z"/></g>
<g><path style="opacity:1" fill="#61300e" d="M 268.5,204.5 C 261.204,186.459 254.371,168.125 248,149.5C 247.617,148.944 247.117,148.611 246.5,148.5C 245.89,147.609 245.557,146.609 245.5,145.5C 245.539,144.417 245.873,143.417 246.5,142.5C 232.182,141.501 217.849,141.167 203.5,141.5C 203.5,142.5 203.5,143.5 203.5,144.5C 202.566,143.432 202.232,142.099 202.5,140.5C 217.5,140.5 232.5,140.5 247.5,140.5C 254.5,161.833 261.5,183.167 268.5,204.5 Z"/></g>
<g><path style="opacity:1" fill="#ec862d" d="M 477.5,89.5 C 518.497,121.176 548.497,161.176 567.5,209.5C 567.043,210.298 566.376,210.631 565.5,210.5C 548.61,170.058 524.277,134.725 492.5,104.5C 492.489,102.983 491.823,101.816 490.5,101C 486.551,97.204 482.217,94.0374 477.5,91.5C 477.5,90.8333 477.5,90.1667 477.5,89.5 Z"/></g>
<g><path style="opacity:1" fill="#894612" d="M 553.5,148.5 C 554.458,148.953 555.292,149.619 556,150.5C 556.918,155.693 559.751,159.36 564.5,161.5C 564.343,162.873 564.51,164.207 565,165.5C 571.569,176.296 576.735,187.63 580.5,199.5C 576.638,194.442 573.804,188.775 572,182.5C 569.079,177.659 566.412,172.659 564,167.5C 558.328,162.271 554.828,155.938 553.5,148.5 Z"/></g>
<g><path style="opacity:1" fill="#e06426" d="M 249.5,24.5 C 230.644,31.2176 211.644,37.7176 192.5,44C 174.186,52.823 156.186,62.1564 138.5,72C 112.667,91.1667 90.1667,113.667 71,139.5C 66.9239,148.651 62.5906,157.651 58,166.5C 52.351,173.126 47.1844,180.126 42.5,187.5C 43.038,185.883 43.3713,184.216 43.5,182.5C 46.8587,178.106 48.8587,173.106 49.5,167.5C 51.9243,163.024 55.091,159.024 59,155.5C 61.0995,152.3 62.9328,148.967 64.5,145.5C 88.5831,112.083 117.583,83.7497 151.5,60.5C 155.862,57.9922 160.529,56.1589 165.5,55C 191.347,38.7745 219.347,28.6078 249.5,24.5 Z"/></g>
<g><path style="opacity:1" fill="#d65f25" d="M 95.5,126.5 C 55.4776,174.565 33.1442,229.898 28.5,292.5C 28.7275,288.61 28.3942,284.776 27.5,281C 28.7007,272.2 29.7007,263.7 30.5,255.5C 35.4924,237.879 40.6591,220.212 46,202.5C 49.8227,194.683 53.656,186.683 57.5,178.5C 64.01,169.324 69.6767,159.658 74.5,149.5C 76.1927,148.525 77.6927,147.192 79,145.5C 82.3125,139.481 85.9791,133.814 90,128.5C 91.762,126.738 93.5953,126.072 95.5,126.5 Z"/></g>
<g><path style="opacity:1" fill="#a95616" d="M 438.5,48.5 C 441.908,49.3668 445.242,50.5335 448.5,52C 452.967,54.3546 457.301,56.8546 461.5,59.5C 461.297,61.3904 461.963,62.8904 463.5,64C 469.721,68.5465 476.387,72.2132 483.5,75C 487.835,81.3275 493.502,85.9942 500.5,89C 510.261,98.9264 520.261,108.76 530.5,118.5C 539.836,127.467 547.503,137.467 553.5,148.5C 554.828,155.938 558.328,162.271 564,167.5C 566.412,172.659 569.079,177.659 572,182.5C 573.804,188.775 576.638,194.442 580.5,199.5C 580.337,201.857 580.503,204.19 581,206.5C 583.365,213.304 586.032,219.97 589,226.5C 591.029,238.021 593.695,249.354 597,260.5C 599.298,285.787 599.965,311.121 599,336.5C 598.92,343.08 598.086,349.413 596.5,355.5C 596.034,348.102 596.034,340.769 596.5,333.5C 596.912,308.457 596.079,283.457 594,258.5C 589.719,244.042 586.052,229.375 583,214.5C 576.983,202.461 571.483,190.128 566.5,177.5C 563.321,173.129 560.155,168.795 557,164.5C 554.881,158.929 552.215,153.596 549,148.5C 542.209,140.617 536.042,132.284 530.5,123.5C 513.656,107.822 496.989,91.9882 480.5,76C 471.122,71.74 462.956,65.9067 456,58.5C 449.876,55.5258 444.042,52.1925 438.5,48.5 Z"/></g>
<g><path style="opacity:1" fill="#b64f20" d="M 419.5,104.5 C 409.342,103.341 399.008,103.175 388.5,104C 388,104.5 387.5,105 387,105.5C 364.237,174.462 341.237,242.795 318,310.5C 317.738,316.048 315.238,320.048 310.5,322.5C 335.036,250.892 359.369,179.225 383.5,107.5C 384.933,106.167 386.267,104.667 387.5,103C 398.45,101.454 409.45,101.121 420.5,102C 421.566,103.159 421.233,103.992 419.5,104.5 Z"/></g>
<g><path style="opacity:1" fill="#dc8723" d="M 423.5,109.5 C 423.5,109.833 423.5,110.167 423.5,110.5C 421.907,111.348 420.74,112.681 420,114.5C 404.333,159.5 388.667,204.5 373,249.5C 370.897,254.302 369.731,259.302 369.5,264.5C 369.5,264.833 369.5,265.167 369.5,265.5C 368.25,265.577 367.417,266.244 367,267.5C 361.817,282.048 356.817,296.715 352,311.5C 351.623,312.942 350.79,313.942 349.5,314.5C 359.769,285.199 369.269,255.865 378,226.5C 379.333,224.5 380.667,222.5 382,220.5C 382.491,212.025 385.158,204.359 390,197.5C 391.644,187.565 394.311,177.898 398,168.5C 399.85,163.954 401.517,159.287 403,154.5C 406.744,150.624 408.41,145.957 408,140.5C 408.946,135.942 410.946,131.942 414,128.5C 415.892,120.999 418.059,113.665 420.5,106.5C 421.122,105.373 421.955,104.373 423,103.5C 423.495,105.473 423.662,107.473 423.5,109.5 Z"/></g>
<g><path style="opacity:1" fill="#6a360e" d="M 203.5,145.5 C 204.5,146.167 205.5,146.833 206.5,147.5C 219.034,181.769 231.367,216.102 243.5,250.5C 244.833,255.833 246.167,261.167 247.5,266.5C 232.859,226.253 218.193,185.919 203.5,145.5 Z"/></g>
<g><path style="opacity:1" fill="#ffb63b" d="M 388.5,188.5 C 380.096,212.299 371.43,235.965 362.5,259.5C 361.503,259.47 360.836,259.97 360.5,261C 359.837,266.004 357.504,270.004 353.5,273C 347.379,277.477 340.879,281.31 334,284.5C 329.799,294.226 325.633,303.893 321.5,313.5C 324.829,303.178 328.163,292.845 331.5,282.5C 338.49,265.204 345.49,247.871 352.5,230.5C 356.391,230.106 359.391,228.273 361.5,225C 366.528,222.824 371.194,220.157 375.5,217C 376.337,215.989 376.67,214.822 376.5,213.5C 380.879,206.92 384.046,199.587 386,191.5C 386.377,190.058 387.21,189.058 388.5,188.5 Z"/></g>
<g><path style="opacity:1" fill="#b2701c" d="M 271.5,215.5 C 281.128,239.044 289.795,263.044 297.5,287.5C 295.059,285.925 293.893,283.592 294,280.5C 293.333,279.833 292.667,279.167 292,278.5C 284.931,257.787 278.097,236.787 271.5,215.5 Z"/></g>
<g><path style="opacity:1" fill="#ff9733" d="M 376.5,213.5 C 376.67,214.822 376.337,215.989 375.5,217C 371.194,220.157 366.528,222.824 361.5,225C 359.391,228.273 356.391,230.106 352.5,230.5C 352.971,229.099 353.638,227.766 354.5,226.5C 361.856,222.157 369.19,217.824 376.5,213.5 Z"/></g>
<g><path style="opacity:1" fill="#fd9d29" d="M 419.5,106.5 C 419.833,106.5 420.167,106.5 420.5,106.5C 418.059,113.665 415.892,120.999 414,128.5C 410.946,131.942 408.946,135.942 408,140.5C 408.41,145.957 406.744,150.624 403,154.5C 401.517,159.287 399.85,163.954 398,168.5C 394.311,177.898 391.644,187.565 390,197.5C 385.158,204.359 382.491,212.025 382,220.5C 380.667,222.5 379.333,224.5 378,226.5C 369.269,255.865 359.769,285.199 349.5,314.5C 342.633,334.433 335.967,354.433 329.5,374.5C 328.4,376.277 327.566,378.277 327,380.5C 326.5,390.494 326.334,400.494 326.5,410.5C 325.746,447.672 325.08,485.005 324.5,522.5C 325.5,522.5 326.5,522.5 327.5,522.5C 315.678,523.495 303.678,523.828 291.5,523.5C 292.463,478.515 292.797,433.515 292.5,388.5C 292.5,385.833 292.5,383.167 292.5,380.5C 287.751,362.998 282.418,345.665 276.5,328.5C 277.75,328.577 278.583,329.244 279,330.5C 284.619,346.071 289.953,361.738 295,377.5C 295.333,423.5 295.667,469.5 296,515.5C 296.5,516 297,516.5 297.5,517C 304.833,517.667 312.167,517.667 319.5,517C 320,516.5 320.5,516 321,515.5C 321.333,469.833 321.667,424.167 322,378.5C 335.007,338.646 348.507,298.979 362.5,259.5C 371.43,235.965 380.096,212.299 388.5,188.5C 397.303,163.424 406.303,138.424 415.5,113.5C 417.071,111.365 418.404,109.032 419.5,106.5 Z"/></g>
<g><path style="opacity:1" fill="#aa6b1b" d="M 423.5,110.5 C 405.672,161.989 387.672,213.323 369.5,264.5C 369.731,259.302 370.897,254.302 373,249.5C 388.667,204.5 404.333,159.5 420,114.5C 420.74,112.681 421.907,111.348 423.5,110.5 Z"/></g>
<g><path style="opacity:1" fill="#63320d" d="M 564.5,161.5 C 601.821,226.767 612.988,296.434 598,370.5C 596.274,378.418 594.108,386.085 591.5,393.5C 591.5,392.833 591.5,392.167 591.5,391.5C 591.271,386.99 591.938,382.657 593.5,378.5C 595.466,373.758 596.966,368.758 598,363.5C 601.812,332.909 602.478,302.242 600,271.5C 598.694,258.968 596.36,246.635 593,234.5C 589.271,222.467 585.104,210.8 580.5,199.5C 576.735,187.63 571.569,176.296 565,165.5C 564.51,164.207 564.343,162.873 564.5,161.5 Z"/></g>
<g><path style="opacity:1" fill="#844312" d="M 43.5,182.5 C 43.3713,184.216 43.038,185.883 42.5,187.5C 40.2508,194.402 38.2508,201.402 36.5,208.5C 35.5,208.833 34.8333,209.5 34.5,210.5C 17.4108,251.742 11.5775,294.742 17,339.5C 19.1667,346.995 20.5001,354.661 21,362.5C 23.0414,371.997 25.7081,381.33 29,390.5C 29.498,393.482 29.6646,396.482 29.5,399.5C 28.1122,396.192 26.6122,392.859 25,389.5C 23.1386,379.721 20.8052,370.054 18,360.5C 15.927,340.079 14.5936,319.746 14,299.5C 15.1012,270.9 20.1012,242.9 29,215.5C 32.3768,209.906 34.7101,203.906 36,197.5C 37.9825,192.202 40.4825,187.202 43.5,182.5 Z"/></g>
<g><path style="opacity:1" fill="#60310d" d="M 48.5,167.5 C 48.8333,167.5 49.1667,167.5 49.5,167.5C 48.8587,173.106 46.8587,178.106 43.5,182.5C 40.4825,187.202 37.9825,192.202 36,197.5C 34.7101,203.906 32.3768,209.906 29,215.5C 20.1012,242.9 15.1012,270.9 14,299.5C 14.5936,319.746 15.927,340.079 18,360.5C 20.8052,370.054 23.1386,379.721 25,389.5C 26.6122,392.859 28.1122,396.192 29.5,399.5C 30.2888,404.536 31.2888,409.536 32.5,414.5C 18.9932,381.127 12.3266,346.294 12.5,310C 12.2047,259.347 24.2047,211.847 48.5,167.5 Z"/></g>
<g><path style="opacity:1" fill="#fea42b" d="M 263.5,202.5 C 268.882,217.138 274.049,232.138 279,247.5C 281.583,251.591 283.583,255.924 285,260.5C 290.266,281.297 296.932,301.63 305,321.5C 305.671,322.252 306.504,322.586 307.5,322.5C 307.5,322.833 307.5,323.167 307.5,323.5C 308.109,327.631 310.109,328.798 313.5,327C 316.836,322.817 319.503,318.317 321.5,313.5C 325.633,303.893 329.799,294.226 334,284.5C 340.879,281.31 347.379,277.477 353.5,273C 357.504,270.004 359.837,266.004 360.5,261C 360.836,259.97 361.503,259.47 362.5,259.5C 348.507,298.979 335.007,338.646 322,378.5C 321.667,424.167 321.333,469.833 321,515.5C 320.5,516 320,516.5 319.5,517C 312.167,517.667 304.833,517.667 297.5,517C 297,516.5 296.5,516 296,515.5C 295.667,469.5 295.333,423.5 295,377.5C 289.953,361.738 284.619,346.071 279,330.5C 278.583,329.244 277.75,328.577 276.5,328.5C 275.193,325.275 274.193,321.941 273.5,318.5C 273.5,318.167 273.5,317.833 273.5,317.5C 274.117,317.611 274.617,317.944 275,318.5C 275.49,317.207 275.657,315.873 275.5,314.5C 282.338,313.081 288.338,310.081 293.5,305.5C 291.365,301.651 290.865,297.651 292,293.5C 290.284,290.36 288.951,287.027 288,283.5C 287.329,282.748 286.496,282.414 285.5,282.5C 281.706,261.052 275.706,239.719 267.5,218.5C 266.37,213.112 265.037,207.778 263.5,202.5 Z"/></g>
<g><path style="opacity:1" fill="#ffb53b" d="M 285.5,282.5 C 286.496,282.414 287.329,282.748 288,283.5C 288.951,287.027 290.284,290.36 292,293.5C 290.865,297.651 291.365,301.651 293.5,305.5C 288.338,310.081 282.338,313.081 275.5,314.5C 275.657,315.873 275.49,317.207 275,318.5C 274.617,317.944 274.117,317.611 273.5,317.5C 273.167,316.833 272.833,316.167 272.5,315.5C 271.074,310.444 270.074,305.444 269.5,300.5C 274.997,295.171 280.664,290.004 286.5,285C 285.748,284.329 285.414,283.496 285.5,282.5 Z"/></g>
<g><path style="opacity:1" fill="#e18a24" d="M 246.5,148.5 C 247.117,148.611 247.617,148.944 248,149.5C 254.371,168.125 261.204,186.459 268.5,204.5C 269.297,208.223 270.297,211.89 271.5,215.5C 278.097,236.787 284.931,257.787 292,278.5C 292.667,279.167 293.333,279.833 294,280.5C 293.893,283.592 295.059,285.925 297.5,287.5C 297.5,287.833 297.5,288.167 297.5,288.5C 298.341,294.537 299.508,300.537 301,306.5C 302.157,310.971 304.157,314.971 307,318.5C 307.49,319.793 307.657,321.127 307.5,322.5C 306.504,322.586 305.671,322.252 305,321.5C 296.932,301.63 290.266,281.297 285,260.5C 283.583,255.924 281.583,251.591 279,247.5C 274.049,232.138 268.882,217.138 263.5,202.5C 257.053,184.822 251.387,166.822 246.5,148.5 Z"/></g>
<g><path style="opacity:1" fill="#ff9232" d="M 285.5,282.5 C 285.414,283.496 285.748,284.329 286.5,285C 280.664,290.004 274.997,295.171 269.5,300.5C 268.374,299.142 268.374,297.808 269.5,296.5C 274.557,291.438 279.89,286.772 285.5,282.5 Z"/></g>
<g><path style="opacity:1" fill="#fd9d29" d="M 582.5,261.5 C 584.292,266.465 585.959,271.465 587.5,276.5C 589.612,280.382 589.612,284.382 587.5,288.5C 588.861,290.85 590.194,293.184 591.5,295.5C 591.51,409.007 543.51,495.507 447.5,555C 404.398,579.253 358.064,591.92 308.5,593C 393.971,593.677 465.471,562.51 523,499.5C 564.586,451.299 588.419,395.299 594.5,331.5C 595.167,332.167 595.833,332.833 596.5,333.5C 596.034,340.769 596.034,348.102 596.5,355.5C 595.717,359.693 595.051,364.027 594.5,368.5C 589.749,382.138 585.582,396.138 582,410.5C 578.245,417.205 575.245,424.205 573,431.5C 567.967,439.568 563.467,447.902 559.5,456.5C 511.448,533.542 442.781,580.542 353.5,597.5C 350.763,597.401 348.096,597.735 345.5,598.5C 343.044,597.738 340.544,597.071 338,596.5C 333.944,598.539 329.778,598.872 325.5,597.5C 315.374,595.989 305.041,595.156 294.5,595C 292.833,594.667 291.167,594.333 289.5,594C 288.275,592.437 286.775,591.27 285,590.5C 279.944,593.625 275.444,593.125 271.5,589C 267.532,587.962 263.865,586.462 260.5,584.5C 302.012,590.118 343.012,587.618 383.5,577C 395.42,572.319 407.087,567.819 418.5,563.5C 477.748,539.587 522.081,499.254 551.5,442.5C 558.095,428.173 564.761,414.006 571.5,400C 582.336,370.316 587.002,339.65 585.5,308C 585.866,292.401 584.866,276.901 582.5,261.5 Z"/></g>
<g><path style="opacity:1" fill="#fea32a" d="M 591.5,295.5 C 592.78,307.478 593.78,319.478 594.5,331.5C 588.419,395.299 564.586,451.299 523,499.5C 465.471,562.51 393.971,593.677 308.5,593C 358.064,591.92 404.398,579.253 447.5,555C 543.51,495.507 591.51,409.007 591.5,295.5 Z"/></g>
<g><path style="opacity:1" fill="#8a4612" d="M 580.5,199.5 C 585.104,210.8 589.271,222.467 593,234.5C 596.36,246.635 598.694,258.968 600,271.5C 602.478,302.242 601.812,332.909 598,363.5C 596.966,368.758 595.466,373.758 593.5,378.5C 594.051,375.193 594.384,371.86 594.5,368.5C 595.051,364.027 595.717,359.693 596.5,355.5C 598.086,349.413 598.92,343.08 599,336.5C 599.965,311.121 599.298,285.787 597,260.5C 593.695,249.354 591.029,238.021 589,226.5C 586.032,219.97 583.365,213.304 581,206.5C 580.503,204.19 580.337,201.857 580.5,199.5 Z"/></g>
<g><path style="opacity:1" fill="#61310d" d="M 247.5,266.5 C 248.117,266.611 248.617,266.944 249,267.5C 253.546,282.473 258.879,297.139 265,311.5C 266.993,317.807 268.826,324.141 270.5,330.5C 262.065,309.534 254.398,288.201 247.5,266.5 Z"/></g>
<g><path style="opacity:1" fill="#ab5617" d="M 30.5,250.5 C 30.5,252.167 30.5,253.833 30.5,255.5C 29.7007,263.7 28.7007,272.2 27.5,281C 28.3942,284.776 28.7275,288.61 28.5,292.5C 27.8992,314.321 29.3992,335.988 33,357.5C 33.498,354.518 33.6646,351.518 33.5,348.5C 34.6874,351.946 35.3541,355.613 35.5,359.5C 33.9907,358.141 33.324,358.641 33.5,361C 34.4314,365.224 35.4314,369.391 36.5,373.5C 35.3775,375.288 35.2109,377.288 36,379.5C 40.099,390.798 43.599,402.298 46.5,414C 51.8987,423.964 56.8987,434.131 61.5,444.5C 60.5416,444.047 59.7083,443.381 59,442.5C 31.1477,393.342 19.8144,340.342 25,283.5C 25.3135,275.444 26.1468,267.444 27.5,259.5C 28.4243,255.781 29.4243,252.781 30.5,250.5 Z"/></g>
<g><path style="opacity:1" fill="#b9701e" d="M 297.5,288.5 C 301.833,299.833 306.167,311.167 310.5,322.5C 309.791,323.404 308.791,323.737 307.5,323.5C 307.5,323.167 307.5,322.833 307.5,322.5C 307.657,321.127 307.49,319.793 307,318.5C 304.157,314.971 302.157,310.971 301,306.5C 299.508,300.537 298.341,294.537 297.5,288.5 Z"/></g>
<g><path style="opacity:1" fill="#9b411b" d="M 568.5,220.5 C 594.046,297.063 587.713,371.063 549.5,442.5C 548.833,442.5 548.167,442.5 547.5,442.5C 584.877,371.392 591.877,297.392 568.5,220.5 Z"/></g>
<g><path style="opacity:1" fill="#a45316" d="M 269.5,317.5 C 270.158,318.398 270.824,319.398 271.5,320.5C 272.182,319.757 272.849,319.091 273.5,318.5C 274.193,321.941 275.193,325.275 276.5,328.5C 282.418,345.665 287.751,362.998 292.5,380.5C 291.9,379.1 290.9,378.1 289.5,377.5C 288.237,372.874 287.071,368.208 286,363.5C 282.231,353.291 277.897,343.291 273,333.5C 271.13,328.372 269.963,323.039 269.5,317.5 Z"/></g>
<g><path style="opacity:1" fill="#ec8e28" d="M 582.5,261.5 C 584.866,276.901 585.866,292.401 585.5,308C 587.002,339.65 582.336,370.316 571.5,400C 564.761,414.006 558.095,428.173 551.5,442.5C 550.833,442.833 550.167,443.167 549.5,443.5C 549.5,443.167 549.5,442.833 549.5,442.5C 587.713,371.063 594.046,297.063 568.5,220.5C 567.737,217.859 567.57,215.192 568,212.5C 574.845,228.207 579.678,244.54 582.5,261.5 Z"/></g>
<g><path style="opacity:1" fill="#bf731d" d="M 369.5,265.5 C 357.068,302.801 344.068,339.801 330.5,376.5C 330.167,375.833 329.833,375.167 329.5,374.5C 335.967,354.433 342.633,334.433 349.5,314.5C 350.79,313.942 351.623,312.942 352,311.5C 356.817,296.715 361.817,282.048 367,267.5C 367.417,266.244 368.25,265.577 369.5,265.5 Z"/></g>
<g><path style="opacity:1" fill="#793d10" d="M 243.5,250.5 C 252.402,272.655 261.069,294.988 269.5,317.5C 269.963,323.039 271.13,328.372 273,333.5C 277.897,343.291 282.231,353.291 286,363.5C 287.071,368.208 288.237,372.874 289.5,377.5C 289.5,377.833 289.5,378.167 289.5,378.5C 288.883,378.611 288.383,378.944 288,379.5C 287.5,388.827 287.334,398.161 287.5,407.5C 287.167,407.5 286.833,407.5 286.5,407.5C 286.667,396.495 286.5,385.495 286,374.5C 280.132,360.062 274.966,345.396 270.5,330.5C 268.826,324.141 266.993,317.807 265,311.5C 258.879,297.139 253.546,282.473 249,267.5C 248.617,266.944 248.117,266.611 247.5,266.5C 246.167,261.167 244.833,255.833 243.5,250.5 Z"/></g>
<g><path style="opacity:1" fill="#d96025" d="M 289.5,377.5 C 290.9,378.1 291.9,379.1 292.5,380.5C 292.5,383.167 292.5,385.833 292.5,388.5C 291.625,419.71 290.625,449.71 289.5,478.5C 289.5,445.167 289.5,411.833 289.5,378.5C 289.5,378.167 289.5,377.833 289.5,377.5 Z"/></g>
<g><path style="opacity:1" fill="#bf5322" d="M 289.5,378.5 C 289.5,411.833 289.5,445.167 289.5,478.5C 289.167,478.5 288.833,478.5 288.5,478.5C 288.373,454.83 288.04,431.163 287.5,407.5C 287.334,398.161 287.5,388.827 288,379.5C 288.383,378.944 288.883,378.611 289.5,378.5 Z"/></g>
<g><path style="opacity:1" fill="#cd7d20" d="M 329.5,374.5 C 329.833,375.167 330.167,375.833 330.5,376.5C 329.514,426.47 329.18,476.47 329.5,526.5C 316.421,526.814 303.421,526.48 290.5,525.5C 290.5,524.833 290.5,524.167 290.5,523.5C 290.833,523.5 291.167,523.5 291.5,523.5C 303.678,523.828 315.678,523.495 327.5,522.5C 326.965,485.169 326.631,447.836 326.5,410.5C 326.334,400.494 326.5,390.494 327,380.5C 327.566,378.277 328.4,376.277 329.5,374.5 Z"/></g>
<g><path style="opacity:1" fill="#a45316" d="M 292.5,388.5 C 292.797,433.515 292.463,478.515 291.5,523.5C 291.167,523.5 290.833,523.5 290.5,523.5C 290.013,522.527 289.513,521.527 289,520.5C 288.5,506.504 288.333,492.504 288.5,478.5C 288.833,478.5 289.167,478.5 289.5,478.5C 290.625,449.71 291.625,419.71 292.5,388.5 Z"/></g>
<g><path style="opacity:1" fill="#e9822c" d="M 35.5,359.5 C 57.5953,456.79 114.262,525.124 205.5,564.5C 205.833,565.167 206.167,565.833 206.5,566.5C 206.5,566.833 206.5,567.167 206.5,567.5C 164.499,551.008 128.332,526.008 98,492.5C 94.011,486.683 89.511,481.349 84.5,476.5C 61.813,445.45 45.813,411.117 36.5,373.5C 35.4314,369.391 34.4314,365.224 33.5,361C 33.324,358.641 33.9907,358.141 35.5,359.5 Z"/></g>
<g><path style="opacity:1" fill="#934a14" d="M 36.5,373.5 C 45.813,411.117 61.813,445.45 84.5,476.5C 80.7403,473.177 77.2403,469.511 74,465.5C 70.3107,458.106 66.1441,451.106 61.5,444.5C 56.8987,434.131 51.8987,423.964 46.5,414C 43.599,402.298 40.099,390.798 36,379.5C 35.2109,377.288 35.3775,375.288 36.5,373.5 Z"/></g>
<g><path style="opacity:1" fill="#fead2d" d="M 326.5,410.5 C 326.631,447.836 326.965,485.169 327.5,522.5C 326.5,522.5 325.5,522.5 324.5,522.5C 325.08,485.005 325.746,447.672 326.5,410.5 Z"/></g>
<g><path style="opacity:1" fill="#bb761e" d="M 591.5,391.5 C 591.5,392.167 591.5,392.833 591.5,393.5C 583.201,423.76 569.868,451.427 551.5,476.5C 550.167,477.5 548.833,478.5 547.5,479.5C 549.958,473.264 553.458,467.597 558,462.5C 558.813,460.564 559.313,458.564 559.5,456.5C 561.446,454.293 563.612,452.293 566,450.5C 570.103,443.526 573.437,436.193 576,428.5C 577.333,426.5 578.667,424.5 580,422.5C 581.977,416.224 583.644,409.89 585,403.5C 586.518,399.077 588.685,395.077 591.5,391.5 Z"/></g>
<g><path style="opacity:1" fill="#b85e19" d="M 36.5,208.5 C 35.8091,213.598 34.6425,218.598 33,223.5C 32.1638,232.653 31.3305,241.653 30.5,250.5C 29.4243,252.781 28.4243,255.781 27.5,259.5C 26.1468,267.444 25.3135,275.444 25,283.5C 19.8144,340.342 31.1477,393.342 59,442.5C 59.7083,443.381 60.5416,444.047 61.5,444.5C 66.1441,451.106 70.3107,458.106 74,465.5C 77.2403,469.511 80.7403,473.177 84.5,476.5C 84.3433,477.873 84.51,479.207 85,480.5C 95.2435,493.913 106.744,506.247 119.5,517.5C 120.921,520.009 122.588,522.343 124.5,524.5C 129.063,528.306 134.063,531.472 139.5,534C 145.532,540.684 152.866,545.351 161.5,548C 168.167,552 174.833,556 181.5,560C 182.793,560.49 184.127,560.657 185.5,560.5C 185.36,562.124 186.027,563.29 187.5,564C 193.427,565.864 199.427,567.53 205.5,569C 206.833,570 208.167,571 209.5,572C 221.504,575.696 233.504,579.196 245.5,582.5C 246.416,582.457 247.083,582.124 247.5,581.5C 251.767,582.698 256.1,583.698 260.5,584.5C 263.865,586.462 267.532,587.962 271.5,589C 275.444,593.125 279.944,593.625 285,590.5C 286.775,591.27 288.275,592.437 289.5,594C 291.167,594.333 292.833,594.667 294.5,595C 305.041,595.156 315.374,595.989 325.5,597.5C 285.16,600.523 246.16,595.023 208.5,581C 206.527,580.505 204.527,580.338 202.5,580.5C 200.684,578.863 198.684,577.363 196.5,576C 185.263,571.407 174.263,566.407 163.5,561C 161.833,559.167 160.167,557.333 158.5,555.5C 149.943,550.608 141.943,544.941 134.5,538.5C 131.788,537.772 129.121,536.939 126.5,536C 113.358,522.525 99.8579,509.359 86,496.5C 83.3215,491.663 79.8215,487.663 75.5,484.5C 71.3419,473.858 65.8419,463.858 59,454.5C 53.1869,442.206 46.8535,430.206 40,418.5C 33.5924,402.944 28.5924,386.944 25,370.5C 22.559,353.899 20.8923,337.233 20,320.5C 18.4641,296.659 19.7974,272.993 24,249.5C 27.0772,236.349 30.5772,223.349 34.5,210.5C 34.8333,209.5 35.5,208.833 36.5,208.5 Z"/></g>
<g><path style="opacity:1" fill="#7f4111" d="M 29.5,399.5 C 32.0362,405.249 34.8695,410.915 38,416.5C 42.4979,431.497 49.1646,445.497 58,458.5C 58.49,459.793 58.6567,461.127 58.5,462.5C 57.017,460.906 55.517,459.24 54,457.5C 49.5665,447.622 44.3998,438.288 38.5,429.5C 35.7042,424.895 33.7042,419.895 32.5,414.5C 31.2888,409.536 30.2888,404.536 29.5,399.5 Z"/></g>
<g><path style="opacity:1" fill="#e18924" d="M 594.5,368.5 C 594.384,371.86 594.051,375.193 593.5,378.5C 591.938,382.657 591.271,386.99 591.5,391.5C 588.685,395.077 586.518,399.077 585,403.5C 583.644,409.89 581.977,416.224 580,422.5C 578.667,424.5 577.333,426.5 576,428.5C 573.437,436.193 570.103,443.526 566,450.5C 563.612,452.293 561.446,454.293 559.5,456.5C 563.467,447.902 567.967,439.568 573,431.5C 575.245,424.205 578.245,417.205 582,410.5C 585.582,396.138 589.749,382.138 594.5,368.5 Z"/></g>
<g><path style="opacity:1" fill="#592d0d" d="M 286.5,407.5 C 286.833,407.5 287.167,407.5 287.5,407.5C 288.04,431.163 288.373,454.83 288.5,478.5C 288.333,492.504 288.5,506.504 289,520.5C 289.513,521.527 290.013,522.527 290.5,523.5C 290.5,524.167 290.5,524.833 290.5,525.5C 289.167,525.5 287.833,525.5 286.5,525.5C 286.5,486.167 286.5,446.833 286.5,407.5 Z"/></g>
<g><path style="opacity:1" fill="#a75516" d="M 34.5,210.5 C 30.5772,223.349 27.0772,236.349 24,249.5C 19.7974,272.993 18.4641,296.659 20,320.5C 20.8923,337.233 22.559,353.899 25,370.5C 28.5924,386.944 33.5924,402.944 40,418.5C 46.8535,430.206 53.1869,442.206 59,454.5C 65.8419,463.858 71.3419,473.858 75.5,484.5C 73.2221,482.233 71.3887,479.567 70,476.5C 68.8873,475.695 67.7206,475.028 66.5,474.5C 66.6567,473.127 66.49,471.793 66,470.5C 63.0932,468.148 60.5932,465.482 58.5,462.5C 58.6567,461.127 58.49,459.793 58,458.5C 49.1646,445.497 42.4979,431.497 38,416.5C 34.8695,410.915 32.0362,405.249 29.5,399.5C 29.6646,396.482 29.498,393.482 29,390.5C 25.7081,381.33 23.0414,371.997 21,362.5C 20.5001,354.661 19.1667,346.995 17,339.5C 11.5775,294.742 17.4108,251.742 34.5,210.5 Z"/></g>
<g><path style="opacity:1" fill="#61310d" d="M 38.5,429.5 C 44.3998,438.288 49.5665,447.622 54,457.5C 55.517,459.24 57.017,460.906 58.5,462.5C 60.5932,465.482 63.0932,468.148 66,470.5C 66.49,471.793 66.6567,473.127 66.5,474.5C 69.4449,479.95 72.6116,485.283 76,490.5C 86.9713,503.305 98.4713,515.639 110.5,527.5C 78.7214,500.635 54.7214,467.968 38.5,429.5 Z"/></g>
<g><path style="opacity:1" fill="#e48b24" d="M 559.5,456.5 C 559.313,458.564 558.813,460.564 558,462.5C 553.458,467.597 549.958,473.264 547.5,479.5C 541.673,483.498 537.507,488.832 535,495.5C 505.263,530.231 470.096,557.565 429.5,577.5C 417.059,581.533 404.726,586.033 392.5,591C 386.265,591.758 380.265,593.258 374.5,595.5C 369.609,596.903 364.609,597.57 359.5,597.5C 357.297,597.935 355.297,597.935 353.5,597.5C 442.781,580.542 511.448,533.542 559.5,456.5 Z"/></g>
<g><path style="opacity:1" fill="#763c10" d="M 66.5,474.5 C 67.7206,475.028 68.8873,475.695 70,476.5C 71.3887,479.567 73.2221,482.233 75.5,484.5C 78.9689,491.814 84.1356,497.814 91,502.5C 92.2396,505.412 93.9063,508.079 96,510.5C 104.728,519.396 113.562,528.063 122.5,536.5C 121.833,536.5 121.167,536.5 120.5,536.5C 116.564,534.234 113.231,531.234 110.5,527.5C 98.4713,515.639 86.9713,503.305 76,490.5C 72.6116,485.283 69.4449,479.95 66.5,474.5 Z"/></g>
<g><path style="opacity:1" fill="#a35316" d="M 84.5,476.5 C 89.511,481.349 94.011,486.683 98,492.5C 128.332,526.008 164.499,551.008 206.5,567.5C 219.593,573.532 233.26,578.199 247.5,581.5C 247.083,582.124 246.416,582.457 245.5,582.5C 233.504,579.196 221.504,575.696 209.5,572C 208.167,571 206.833,570 205.5,569C 199.427,567.53 193.427,565.864 187.5,564C 186.027,563.29 185.36,562.124 185.5,560.5C 184.127,560.657 182.793,560.49 181.5,560C 174.833,556 168.167,552 161.5,548C 152.866,545.351 145.532,540.684 139.5,534C 134.063,531.472 129.063,528.306 124.5,524.5C 122.588,522.343 120.921,520.009 119.5,517.5C 106.744,506.247 95.2435,493.913 85,480.5C 84.51,479.207 84.3433,477.873 84.5,476.5 Z"/></g>
<g><path style="opacity:1" fill="#9e5015" d="M 75.5,484.5 C 79.8215,487.663 83.3215,491.663 86,496.5C 99.8579,509.359 113.358,522.525 126.5,536C 129.121,536.939 131.788,537.772 134.5,538.5C 141.943,544.941 149.943,550.608 158.5,555.5C 160.167,557.333 161.833,559.167 163.5,561C 174.263,566.407 185.263,571.407 196.5,576C 198.684,577.363 200.684,578.863 202.5,580.5C 199.813,580.664 197.146,580.497 194.5,580C 168.588,568.572 144.588,554.072 122.5,536.5C 113.562,528.063 104.728,519.396 96,510.5C 93.9063,508.079 92.2396,505.412 91,502.5C 84.1356,497.814 78.9689,491.814 75.5,484.5 Z"/></g>
<g><path style="opacity:1" fill="#faa62d" d="M 551.5,442.5 C 522.081,499.254 477.748,539.587 418.5,563.5C 419.833,562.5 421.167,561.5 422.5,560.5C 476.644,534.358 518.977,495.358 549.5,443.5C 550.167,443.167 550.833,442.833 551.5,442.5 Z"/></g>
<g><path style="opacity:1" fill="#e07b22" d="M 551.5,476.5 C 520.678,522.249 480.011,556.249 429.5,578.5C 429.5,578.167 429.5,577.833 429.5,577.5C 470.096,557.565 505.263,530.231 535,495.5C 537.507,488.832 541.673,483.498 547.5,479.5C 548.833,478.5 550.167,477.5 551.5,476.5 Z"/></g>
<g><path style="opacity:1" fill="#af4820" d="M 547.5,442.5 C 548.167,442.5 548.833,442.5 549.5,442.5C 549.5,442.833 549.5,443.167 549.5,443.5C 518.977,495.358 476.644,534.358 422.5,560.5C 386.181,576.232 348.181,584.565 308.5,585.5C 296.971,585.005 285.638,584.005 274.5,582.5C 277.167,582.5 279.833,582.5 282.5,582.5C 289.848,582.479 297.181,582.812 304.5,583.5C 411.31,579.96 492.31,532.96 547.5,442.5 Z"/></g>
<g><path style="opacity:1" fill="#913c1a" d="M 205.5,564.5 C 230.576,573.521 256.243,579.521 282.5,582.5C 279.833,582.5 277.167,582.5 274.5,582.5C 266.063,582.128 257.729,580.961 249.5,579C 234.91,575.604 220.577,571.437 206.5,566.5C 206.167,565.833 205.833,565.167 205.5,564.5 Z"/></g>
<g><path style="opacity:1" fill="#eb8e28" d="M 422.5,560.5 C 421.167,561.5 419.833,562.5 418.5,563.5C 407.087,567.819 395.42,572.319 383.5,577C 343.012,587.618 302.012,590.118 260.5,584.5C 256.1,583.698 251.767,582.698 247.5,581.5C 233.26,578.199 219.593,573.532 206.5,567.5C 206.5,567.167 206.5,566.833 206.5,566.5C 220.577,571.437 234.91,575.604 249.5,579C 257.729,580.961 266.063,582.128 274.5,582.5C 285.638,584.005 296.971,585.005 308.5,585.5C 348.181,584.565 386.181,576.232 422.5,560.5 Z"/></g>
<g><path style="opacity:1" fill="#b2711d" d="M 429.5,577.5 C 429.5,577.833 429.5,578.167 429.5,578.5C 412.324,586.67 394.324,592.67 375.5,596.5C 374.833,596.5 374.5,596.167 374.5,595.5C 380.265,593.258 386.265,591.758 392.5,591C 404.726,586.033 417.059,581.533 429.5,577.5 Z"/></g>
<g><path style="opacity:1" fill="#66340e" d="M 120.5,536.5 C 121.167,536.5 121.833,536.5 122.5,536.5C 144.588,554.072 168.588,568.572 194.5,580C 197.146,580.497 199.813,580.664 202.5,580.5C 220.523,589.284 239.523,595.284 259.5,598.5C 262.5,599.093 265.5,599.926 268.5,601C 294.516,601.814 320.516,601.481 346.5,600C 351.127,599.95 355.46,599.117 359.5,597.5C 364.609,597.57 369.609,596.903 374.5,595.5C 374.5,596.167 374.833,596.5 375.5,596.5C 283.302,616.229 199.636,597.729 124.5,541C 122.959,539.629 121.625,538.129 120.5,536.5 Z"/></g>
<g><path style="opacity:1" fill="#9f5115" d="M 202.5,580.5 C 204.527,580.338 206.527,580.505 208.5,581C 246.16,595.023 285.16,600.523 325.5,597.5C 329.778,598.872 333.944,598.539 338,596.5C 340.544,597.071 343.044,597.738 345.5,598.5C 316.998,599.566 288.331,599.566 259.5,598.5C 239.523,595.284 220.523,589.284 202.5,580.5 Z"/></g>
<g><path style="opacity:1" fill="#844311" d="M 353.5,597.5 C 355.297,597.935 357.297,597.935 359.5,597.5C 355.46,599.117 351.127,599.95 346.5,600C 320.516,601.481 294.516,601.814 268.5,601C 265.5,599.926 262.5,599.093 259.5,598.5C 288.331,599.566 316.998,599.566 345.5,598.5C 348.096,597.735 350.763,597.401 353.5,597.5 Z"/></g>
</svg>
